<?xml version="1.0" standalone="no"?>
<!DOCTYPE svg PUBLIC "-//W3C//DTD SVG 20010904//EN"
 "http://www.w3.org/TR/2001/REC-SVG-20010904/DTD/svg10.dtd">
<svg version="1.0" xmlns="http://www.w3.org/2000/svg"
 width="1612.000000pt" height="1618.000000pt" viewBox="0 0 1612.000000 1618.000000"
 preserveAspectRatio="xMidYMid meet">
<metadata>
Created by potrace 1.16, written by Peter Selinger 2001-2019
</metadata>
<g transform="translate(0.000000,1618.000000) scale(0.100000,-0.100000)"
fill="#000000" stroke="none">
<path d="M3375 11607 c-25 -21 -28 -32 -50 -235 -44 -383 -66 -653 -75 -917
-19 -517 -7 -1139 25 -1334 11 -68 13 -102 5 -125 -29 -91 -50 -314 -76 -833
-17 -321 -17 -349 -1 -475 35 -273 40 -377 34 -733 -5 -260 -12 -417 -31 -610
-36 -378 -46 -550 -46 -820 0 -335 14 -516 61 -772 13 -71 27 -117 37 -126 29
-24 82 -37 158 -37 71 0 74 1 112 37 51 49 79 127 92 251 6 53 10 313 10 577
-1 414 1 511 20 710 26 288 38 723 21 817 -9 55 -9 76 4 125 33 123 39 332 25
773 -20 640 -30 2538 -13 2779 31 471 26 827 -12 902 -25 47 -83 69 -187 69
-76 0 -90 -3 -113 -23z"/>
<path d="M12639 11245 c-114 -42 -467 -303 -730 -541 -261 -236 -545 -581
-733 -892 -73 -120 -116 -207 -165 -329 -81 -205 -95 -270 -136 -665 -28 -275
11 -511 123 -733 103 -205 277 -381 458 -461 118 -52 205 -67 354 -60 234 10
331 43 609 211 l161 96 50 82 c80 129 187 351 224 467 42 129 61 251 52 340
-17 186 -139 466 -238 545 -36 28 -261 128 -443 197 -106 39 -115 41 -225 41
-93 0 -142 -6 -254 -31 -77 -18 -141 -30 -144 -28 -5 6 174 283 268 415 52 74
114 141 245 265 97 90 202 182 233 202 68 46 404 345 486 434 68 74 86 111 86
177 0 89 -73 190 -181 252 -30 17 -56 31 -59 30 -3 0 -21 -6 -41 -14z m-614
-2221 c144 -27 242 -86 304 -183 46 -71 64 -143 56 -215 -9 -78 -30 -132 -112
-283 -53 -99 -78 -134 -115 -164 -68 -53 -143 -87 -236 -107 -186 -38 -351 37
-431 197 -64 127 -97 337 -81 516 5 50 9 97 9 106 1 19 120 72 266 119 128 41
183 43 340 14z"/>
<path d="M5534 10630 c-157 -41 -271 -117 -601 -400 l-222 -190 -85 -163
c-129 -246 -150 -304 -150 -407 0 -98 19 -163 89 -305 99 -202 256 -333 462
-385 101 -27 324 -37 452 -21 121 15 302 90 510 212 l54 31 -5 -88 c-7 -105
-36 -226 -124 -506 -35 -114 -82 -276 -105 -360 -58 -220 -86 -303 -135 -393
-54 -101 -139 -310 -200 -497 -56 -170 -64 -267 -29 -328 42 -72 249 -145 313
-111 26 14 130 169 211 315 74 134 163 330 199 439 15 45 41 103 59 129 49 74
73 148 114 363 23 116 73 316 119 475 96 330 105 372 126 581 15 143 15 202 6
483 -12 336 -23 422 -73 574 -97 295 -323 504 -605 558 -107 20 -291 17 -380
-6z m337 -541 c113 -38 178 -171 195 -394 l6 -90 -115 -85 c-147 -107 -278
-186 -342 -205 -119 -36 -250 -57 -335 -53 -73 3 -94 9 -149 38 -71 38 -107
82 -117 146 -7 48 0 64 65 149 135 177 215 254 372 361 187 127 316 168 420
133z"/>
<path d="M8732 10631 c-156 -39 -281 -123 -627 -421 l-200 -173 -96 -186
c-120 -235 -144 -305 -137 -409 10 -138 103 -340 213 -460 160 -175 359 -241
686 -229 122 4 159 10 225 32 85 28 278 120 383 181 l64 37 -6 -84 c-7 -99
-52 -280 -135 -544 -33 -104 -79 -260 -101 -345 -53 -204 -82 -286 -130 -373
-49 -89 -127 -284 -194 -482 -77 -230 -75 -327 7 -390 46 -35 160 -75 217 -75
38 0 50 5 76 33 90 93 319 521 382 712 18 55 48 123 66 151 48 72 78 170 120
389 22 114 68 298 115 460 97 331 96 326 121 548 18 166 19 204 9 486 -11 322
-24 428 -67 565 -98 314 -321 526 -609 582 -104 19 -290 17 -382 -5z m353
-550 c48 -21 101 -79 126 -137 28 -62 49 -176 49 -264 l0 -79 -77 -59 c-205
-155 -313 -215 -444 -247 -144 -36 -278 -43 -354 -19 -108 33 -175 105 -175
187 0 45 10 62 111 187 109 134 163 188 253 254 238 175 396 229 511 177z"/>
<path d="M6514 5934 c-70 -17 -125 -58 -154 -115 -26 -49 -25 -92 1 -146 25
-52 40 -63 150 -108 134 -55 167 -105 139 -206 -10 -37 -30 -52 -87 -68 -40
-11 -145 8 -171 32 -10 9 -38 24 -62 32 -44 15 -46 15 -63 -6 -25 -31 -6 -56
79 -98 57 -28 83 -35 150 -39 92 -5 139 7 186 46 65 55 90 181 48 249 -24 40
-104 93 -193 128 -37 15 -76 39 -87 52 -41 53 -17 133 50 168 40 21 79 19 119
-6 59 -36 107 -5 64 43 -43 48 -92 60 -169 42z"/>
<path d="M11730 5914 c-42 -5 -141 -23 -192 -35 -52 -13 -57 -39 -67 -309 -8
-214 -4 -332 11 -356 8 -13 326 -28 376 -18 38 8 57 35 43 62 -9 17 -25 19
-169 19 -87 0 -164 3 -170 7 -13 8 -17 213 -4 232 4 7 57 15 127 20 l120 9 3
32 c3 30 1 32 -33 39 -30 5 -148 0 -199 -9 -7 -1 -11 28 -11 85 1 115 3 117
145 133 62 8 117 18 123 24 7 7 8 20 1 38 -10 30 -29 34 -104 27z"/>
<path d="M4661 5862 c-30 -27 -129 -292 -150 -402 -5 -30 -17 -93 -27 -138
-18 -92 -13 -109 29 -98 21 5 27 17 43 87 19 81 20 82 59 96 22 8 83 18 135
23 83 7 97 6 111 -8 9 -10 30 -63 48 -119 22 -72 37 -103 50 -108 25 -8 51 4
51 23 0 42 -79 253 -142 377 -137 271 -163 305 -207 267z m96 -205 c29 -56 55
-114 58 -128 l6 -25 -113 -11 c-62 -6 -114 -10 -114 -9 -3 2 84 255 91 266 12
20 20 9 72 -93z"/>
<path d="M9746 5858 c-14 -67 -44 -641 -34 -660 10 -20 53 -24 64 -7 4 7 10
74 14 150 3 77 9 141 12 144 2 3 32 8 65 11 l60 7 38 -64 c81 -135 147 -219
172 -219 13 0 26 7 30 16 7 19 -31 102 -61 135 -24 27 -100 149 -95 152 106
68 119 85 119 155 0 70 -21 112 -74 150 -51 37 -61 39 -198 47 -106 6 -108 5
-112 -17z m220 -67 c84 -38 111 -117 54 -164 -39 -34 -119 -59 -172 -55 l-43
3 9 112 c8 111 8 112 35 116 54 8 77 6 117 -12z"/>
<path d="M11070 5866 c-72 -13 -110 -30 -110 -49 0 -25 25 -37 76 -37 l53 0 8
-47 c4 -27 7 -112 7 -190 -2 -134 -3 -145 -28 -186 -30 -53 -69 -72 -145 -72
-41 0 -56 -4 -65 -18 -18 -30 24 -57 89 -57 98 0 157 33 202 114 27 49 28 55
28 196 0 80 -3 175 -8 211 l-7 66 49 7 c49 6 61 17 61 57 0 17 -7 19 -72 18
-40 0 -102 -6 -138 -13z"/>
<path d="M5885 5857 c-17 -7 -56 -27 -88 -45 -52 -30 -62 -42 -96 -110 -91
-181 -80 -326 32 -429 52 -48 90 -59 175 -48 100 12 190 63 232 129 17 28 19
39 10 56 -18 34 -49 24 -104 -33 -47 -49 -57 -55 -118 -66 -80 -16 -125 -5
-162 40 -36 42 -52 129 -36 197 18 80 57 157 93 184 60 46 81 53 177 58 95 5
95 5 98 32 3 22 -2 30 -23 38 -35 13 -153 11 -190 -3z"/>
<path d="M7277 5864 c-4 -4 -7 -75 -8 -158 0 -83 -4 -173 -7 -201 l-7 -50
-112 -1 c-62 0 -117 2 -123 6 -14 9 36 124 102 235 56 94 61 125 21 125 -24
-1 -36 -13 -79 -83 -60 -95 -132 -247 -136 -285 -2 -20 3 -29 25 -40 33 -16
239 -36 275 -27 24 6 24 5 16 -47 -5 -29 -8 -71 -9 -93 0 -38 2 -40 30 -40 28
0 31 3 42 55 7 30 15 72 18 92 l6 37 67 3 c64 3 67 4 70 29 4 30 -15 39 -86
39 l-42 0 1 174 c1 128 -3 182 -13 203 -13 27 -37 40 -51 27z"/>
<path d="M7751 5856 c-23 -28 -42 -212 -39 -394 l3 -177 35 0 c51 0 62 29 48
125 -12 86 -6 192 18 331 10 53 14 104 11 113 -8 20 -60 22 -76 2z"/>
<path d="M8242 5853 c-30 -56 -56 -443 -36 -542 6 -27 11 -31 40 -31 21 0 37
6 43 17 5 10 7 80 4 169 -5 118 -2 172 11 247 23 128 20 151 -21 155 -22 2
-34 -2 -41 -15z"/>
<path d="M12253 5855 c-17 -7 -57 -30 -88 -49 -50 -33 -60 -45 -97 -122 -37
-76 -41 -95 -46 -179 -4 -87 -3 -98 22 -149 36 -73 95 -123 154 -132 54 -8
161 10 211 36 45 23 121 103 121 128 0 51 -57 56 -91 8 -37 -52 -68 -72 -132
-86 -107 -22 -167 9 -193 97 -34 116 11 270 98 333 61 45 84 52 169 51 56 -1
79 2 88 13 17 20 5 53 -22 60 -40 11 -162 5 -194 -9z"/>
<path d="M10523 5850 c-126 -25 -211 -146 -220 -315 -5 -80 -3 -96 17 -135 51
-102 117 -143 230 -143 125 0 214 53 270 162 50 100 0 320 -89 390 -63 49
-115 59 -208 41z m147 -86 c52 -44 83 -117 88 -210 5 -85 -7 -123 -51 -171
-48 -54 -197 -69 -255 -27 -15 11 -37 40 -50 65 -19 36 -23 54 -18 99 12 136
68 228 155 254 68 21 96 19 131 -10z"/>
<path d="M9225 5838 c-94 -15 -90 -7 -93 -164 -3 -146 12 -467 24 -497 9 -23
51 -22 64 3 7 12 8 58 4 127 l-6 108 83 24 c113 33 147 51 197 105 41 44 42
48 42 112 0 40 -6 79 -16 101 -33 69 -161 104 -299 81z m149 -69 c57 -16 86
-49 86 -99 0 -80 -30 -111 -148 -151 -100 -34 -97 -38 -99 106 -3 133 -3 133
51 146 45 10 67 10 110 -2z"/>
<path d="M12770 5809 c-113 -21 -136 -34 -125 -69 6 -20 11 -21 78 -15 132 13
120 18 134 -50 7 -34 13 -142 14 -247 1 -145 4 -190 14 -198 21 -17 48 -8 62
20 17 34 16 223 -2 375 -8 65 -12 122 -9 125 3 3 53 4 110 4 102 -2 104 -1
110 22 4 14 1 31 -6 39 -19 23 -245 19 -380 -6z"/>
</g>
</svg>
